<svg width="68" height="44" viewBox="0 0 68 44" fill="none" xmlns="http://www.w3.org/2000/svg">
<path d="M27.8555 32.1162C26.7383 32.1162 25.8968 31.8369 25.3311 31.2783C24.7653 30.7269 24.4824 29.8962 24.4824 28.7861V16.4111C24.4824 15.3011 24.7653 14.4704 25.3311 13.9189C25.8968 13.3604 26.7383 13.0811 27.8555 13.0811H39.4033L37.6738 14.8105H27.8877C27.3506 14.8105 26.9352 14.9538 26.6416 15.2402C26.3551 15.5267 26.2119 15.9492 26.2119 16.5078V28.7002C26.2119 29.2588 26.3551 29.6813 26.6416 29.9678C26.9352 30.2471 27.3506 30.3867 27.8877 30.3867H40.4453C40.8105 30.3867 41.1257 30.2471 41.3906 29.9678C41.6556 29.6813 41.7881 29.2588 41.7881 28.7002V19.0322L43.5176 17.3027V28.7861C43.5176 29.8962 43.249 30.7269 42.7119 31.2783C42.182 31.8369 41.4336 32.1162 40.4668 32.1162H27.8555ZM31.7656 25.1553C31.6654 25.1982 31.5723 25.1768 31.4863 25.0908C31.4076 24.9977 31.3896 24.9046 31.4326 24.8115L32.3994 22.792L42.4219 12.7695L43.8936 14.2197L33.8604 24.2422L31.7656 25.1553ZM44.6885 13.4355L43.2168 11.9531L44.001 11.1797C44.18 11.0078 44.3841 10.9147 44.6133 10.9004C44.8496 10.8861 45.0501 10.9613 45.2148 11.126L45.4619 11.3838C45.6481 11.5628 45.7376 11.7705 45.7305 12.0068C45.7305 12.236 45.641 12.4473 45.4619 12.6406L44.6885 13.4355Z" fill="#FED702"/>
</svg>
