<svg width="16" height="16" viewBox="0 0 16 16" fill="none" xmlns="http://www.w3.org/2000/svg">
<path opacity="0.5" d="M6.56396 11.5098C7.25016 11.5098 7.89486 11.3797 8.49805 11.1196C9.10124 10.854 9.63249 10.4915 10.0918 10.0322C10.5511 9.57292 10.9108 9.04167 11.1709 8.43848C11.4365 7.83529 11.5693 7.19059 11.5693 6.50439C11.5693 5.8182 11.4365 5.1735 11.1709 4.57031C10.9108 3.96712 10.5511 3.43587 10.0918 2.97656C9.63249 2.51172 9.10124 2.14925 8.49805 1.88916C7.89486 1.62907 7.25016 1.49902 6.56396 1.49902C5.87777 1.49902 5.23307 1.62907 4.62988 1.88916C4.02669 2.14925 3.49268 2.51172 3.02783 2.97656C2.56852 3.43587 2.20882 3.96712 1.94873 4.57031C1.68864 5.1735 1.55859 5.8182 1.55859 6.50439C1.55859 7.19059 1.68864 7.83529 1.94873 8.43848C2.20882 9.04167 2.56852 9.57292 3.02783 10.0322C3.49268 10.4915 4.02669 10.854 4.62988 11.1196C5.23307 11.3797 5.87777 11.5098 6.56396 11.5098ZM6.56396 12.8877C5.68408 12.8877 4.85954 12.7217 4.09033 12.3896C3.32113 12.0576 2.64323 11.5983 2.05664 11.0117C1.47005 10.4251 1.01074 9.74723 0.678711 8.97803C0.34668 8.20882 0.180664 7.38428 0.180664 6.50439C0.180664 5.62451 0.34668 4.79997 0.678711 4.03076C1.01074 3.25602 1.47005 2.57812 2.05664 1.99707C2.64323 1.41048 3.32113 0.951172 4.09033 0.619141C4.86507 0.287109 5.68962 0.121094 6.56396 0.121094C7.44385 0.121094 8.26839 0.287109 9.0376 0.619141C9.8068 0.951172 10.4847 1.41048 11.0713 1.99707C11.6579 2.58366 12.1172 3.26156 12.4492 4.03076C12.7812 4.79997 12.9473 5.62451 12.9473 6.50439C12.9473 7.38428 12.7812 8.20882 12.4492 8.97803C12.1172 9.74723 11.6579 10.4251 11.0713 11.0117C10.4847 11.5983 9.8068 12.0576 9.0376 12.3896C8.26839 12.7217 7.44385 12.8877 6.56396 12.8877ZM14.8896 15.9009C14.7624 15.9009 14.6406 15.8787 14.5244 15.8345C14.4082 15.7902 14.3031 15.721 14.209 15.627L9.80127 11.2109L11.1626 9.89941L15.5454 14.2905C15.6395 14.3791 15.7059 14.4814 15.7446 14.5977C15.7889 14.7139 15.811 14.8328 15.811 14.9546C15.811 15.1317 15.7695 15.2894 15.6865 15.4277C15.609 15.5716 15.5011 15.6851 15.3628 15.7681C15.2244 15.8566 15.0667 15.9009 14.8896 15.9009Z" fill="#F4F4F4"/>
</svg>
